# xmcd
#
# Track frame offsets: 
#        150
#        19401
#        39136
#        53104
#        80604
#        99389
#        132672
#        149506
#        168728
#        186277
#        218185
#        233988
#        250553
#
# Disc length: 3555 seconds
#
# Revision: 0
# Processed by: cddbd v1.5.1PL2 Copyright (c) Steve Scherf et al.
# Submitted via: ExactAudioCopy v0.95b2
#
DISCID=b90de10d
DTITLE=Shania Twain - Live
DYEAR=1900
DGENRE=Country
TTITLE0=Any Man Of Mine
TTITLE1=Black Eyes, Blue Tears
TTITLE2=Come On Over
TTITLE3=From This Moment On
TTITLE4=God Bless The Child
TTITLE5=Home Ain't Where - Woman In Me - You've Got A Way
TTITLE6=Honey I'm Home
TTITLE7=I Won't Leave You Lonely
TTITLE8=If It Don't Take Two
TTITLE9=If You're Not In It For Love
TTITLE10=I'm Holdin' on To Love
TTITLE11=Love Gets Me Everytime
TTITLE12=You're Still The One
EXTD=
EXTT0=
EXTT1=
EXTT2=
EXTT3=
EXTT4=
EXTT5=
EXTT6=
EXTT7=
EXTT8=
EXTT9=
EXTT10=
EXTT11=
EXTT12=
PLAYORDER=
